<svg class="ldi-sydsde" width="102px"  height="102px"  xmlns="http://www.w3.org/2000/svg" xmlns:xlink="http://www.w3.org/1999/xlink" viewBox="0 0 100 100" preserveAspectRatio="xMidYMid" style="background: none;"><!--?xml version="1.0" encoding="utf-8"?--><!--Generator: Adobe Illustrator 21.0.0, SVG Export Plug-In . SVG Version: 6.00 Build 0)--><svg version="1.1" id="Layer_1" xmlns="http://www.w3.org/2000/svg" xmlns:xlink="http://www.w3.org/1999/xlink" x="0px" y="0px" viewBox="0 0 100 100" style="transform-origin: 50px 50px 0px;" xml:space="preserve"><g style="transform-origin: 50px 50px 0px;"><g style="transform-origin: 50px 50px 0px; transform: scale(0.6);"><g style="transform-origin: 50px 50px 0px;"><g><style type="text/css" style="transform-origin: 50px 50px 0px; animation-duration: 3.2s; animation-delay: -3.2s; animation-direction: normal;" class="ld ld-breath">.st0{fill:#e0e0e0}.st1{fill:#656666}.st2{fill:#666}.st3{fill:#323232}.st4{fill:#fff}.st5{fill:#323232;stroke:#323232;stroke-width:4;stroke-linejoin:round;stroke-miterlimit:10}.st6{fill:none}.st10,.st7,.st8,.st9{fill:#666;stroke:#323232;stroke-width:4;stroke-miterlimit:10}.st10,.st8,.st9{fill:#fff;stroke:#323333}.st10,.st9{fill:none;stroke:#839986;stroke-linecap:round}.st10{stroke:#d65b62}.st11{fill:#d65b62}.st12{fill:#f0af6b}.st13{fill:#839986}.st14{fill:#ba3937}.st15{fill:#e97c60}.st16{fill:#fff}.st16,.st17,.st18{stroke:#323232;stroke-width:3.5;stroke-linejoin:round;stroke-miterlimit:10}.st17{stroke-linecap:round;fill:none}.st18{fill:#323232}</style><g style="transform-origin: 50px 50px 0px; animation-duration: 3.2s; animation-delay: -2.95385s; animation-direction: normal;" class="ld ld-breath"><path class="st0" d="M77.48,28.757L61.231,12.508c-1.191-1.166-2.28-1.727-3.276-1.732H22.589c-0.943,0-1.711,0.762-1.711,1.698 v75.051c0,0.936,0.768,1.698,1.711,1.698h54.822c0.943,0,1.711-0.762,1.711-1.698V32.033C79.131,31.035,78.614,29.948,77.48,28.757z " fill="rgba(6.828959220937303%,18.747402834536114%,90.25806451612904%,0)" style="fill: rgba(17, 48, 230, 0);"></path></g><g style="transform-origin: 50px 50px 0px; animation-duration: 3.2s; animation-delay: -2.70769s; animation-direction: normal;" class="ld ld-breath"><path class="st2" d="M62.414,28.757H77.48L61.231,12.508v15.066C61.231,28.226,61.762,28.757,62.414,28.757z" fill="#ffffff" style="fill: rgb(255, 255, 255);"></path></g><g style="transform-origin: 50px 50px 0px; animation-duration: 3.2s; animation-delay: -2.46154s; animation-direction: normal;" class="ld ld-breath"><path class="st3" d="M80.461,26.424L62.256,8.286C61.748,7.779,61.072,7.5,60.354,7.5H22.589c-2.75,0-4.987,2.232-4.987,4.975 v75.051c0,2.743,2.237,4.975,4.987,4.975h54.822c2.75,0,4.987-2.232,4.987-4.975V31.085C82.398,29.324,81.71,27.668,80.461,26.424z M77.48,28.757H62.414c-0.652,0-1.183-0.531-1.183-1.183V12.508L77.48,28.757z M77.411,89.224H22.589 c-0.943,0-1.711-0.762-1.711-1.698V12.475c0-0.936,0.768-1.698,1.711-1.698h35.366v16.798c0,2.459,2,4.459,4.459,4.459h16.708 v55.493C79.122,88.462,78.355,89.224,77.411,89.224z M80.461,26.424L62.256,8.286C61.748,7.779,61.072,7.5,60.354,7.5H22.589 c-2.75,0-4.987,2.232-4.987,4.975v75.051c0,2.743,2.237,4.975,4.987,4.975h54.822c2.75,0,4.987-2.232,4.987-4.975V31.085 C82.398,29.324,81.71,27.668,80.461,26.424z M77.48,28.757H62.414c-0.652,0-1.183-0.531-1.183-1.183V12.508L77.48,28.757z M77.411,89.224H22.589c-0.943,0-1.711-0.762-1.711-1.698V12.475c0-0.936,0.768-1.698,1.711-1.698h35.366v16.798 c0,2.459,2,4.459,4.459,4.459h16.708v55.493C79.122,88.462,78.355,89.224,77.411,89.224z M26.23,65.701h9.39v18.485h-9.39V65.701z M38.762,48.896h9.39v35.289h-9.39V48.896z M63.825,60.693h9.39v23.492h-9.39V60.693z M60.769,39.429v44.756h-9.467V39.429H60.769z" fill="#ffffff" style="fill: rgb(255, 255, 255);"></path></g><metadata xmlns:d="https://loading.io/stock/" style="transform-origin: 50px 50px 0px; animation-duration: 3.2s; animation-delay: -2.21538s; animation-direction: normal;" class="ld ld-breath">
<d:name style="transform-origin: 50px 50px 0px; animation-duration: 3.2s; animation-delay: -1.96923s; animation-direction: normal;" class="ld ld-breath">chart</d:name>
<d:tags style="transform-origin: 50px 50px 0px; animation-duration: 3.2s; animation-delay: -1.72308s; animation-direction: normal;" class="ld ld-breath">chart,graph,statistics,draw,sketch,matlab,spss,sas,analytics,file</d:tags>
<d:license style="transform-origin: 50px 50px 0px; animation-duration: 3.2s; animation-delay: -1.47692s; animation-direction: normal;" class="ld ld-breath">cc-by</d:license>
<d:slug style="transform-origin: 50px 50px 0px; animation-duration: 3.2s; animation-delay: -1.23077s; animation-direction: normal;" class="ld ld-breath">sydsde</d:slug>
</metadata></g></g></g></g><style type="text/css" style="transform-origin: 50px 50px 0px; animation-duration: 3.2s; animation-delay: -0.984615s; animation-direction: normal;" class="ld ld-breath">@keyframes ld-breath {
  0% {
    -webkit-transform: scale(0.86);
    transform: scale(0.86);
  }
  50% {
    -webkit-transform: scale(1.06);
    transform: scale(1.06);
  }
  100% {
    -webkit-transform: scale(0.86);
    transform: scale(0.86);
  }
}
@-webkit-keyframes ld-breath {
  0% {
    -webkit-transform: scale(0.86);
    transform: scale(0.86);
  }
  50% {
    -webkit-transform: scale(1.06);
    transform: scale(1.06);
  }
  100% {
    -webkit-transform: scale(0.86);
    transform: scale(0.86);
  }
}
.ld.ld-breath {
  -webkit-animation: ld-breath 1s infinite;
  animation: ld-breath 1s infinite;
}
</style></svg></svg>